<svg width="42" height="42" viewBox="0 0 42 42" fill="none" xmlns="http://www.w3.org/2000/svg">
<g clip-path="url(#clip0_43_1509)">
<rect width="42" height="42" rx="11" fill="#FF8912"/>
<path fill-rule="evenodd" clip-rule="evenodd" d="M20.9248 4.55137C20.8039 4.59355 20.6478 4.67351 20.5893 4.72326C20.5613 4.74704 20.5213 4.76652 20.5006 4.76652C20.4524 4.76652 20.2835 4.85115 20.2171 4.90855C20.1891 4.93277 20.1488 4.95259 20.1275 4.95259C20.077 4.95259 19.9087 5.037 19.8494 5.09203C19.8238 5.1158 19.7854 5.14013 19.7641 5.1461C19.656 5.17643 19.5186 5.23955 19.4773 5.27798C19.4517 5.30173 19.3993 5.33603 19.361 5.35422C19.2714 5.39666 19.1927 5.44586 19.1315 5.49771C19.1048 5.52036 19.0552 5.54359 19.0213 5.54931C18.9874 5.55505 18.9518 5.56908 18.9424 5.58051C18.9051 5.6254 18.7296 5.7262 18.671 5.73644C18.6342 5.74284 18.5489 5.78679 18.4616 5.8443C18.3806 5.89767 18.3004 5.94561 18.2833 5.95082C18.2663 5.95605 18.2279 5.98126 18.198 6.00688C18.1682 6.03248 18.1279 6.05344 18.1085 6.05347C18.0639 6.05352 17.8795 6.14607 17.8181 6.19924C17.7925 6.2214 17.7557 6.23954 17.7363 6.23956C17.6885 6.23957 17.519 6.32564 17.4615 6.37902C17.4359 6.40279 17.3975 6.42702 17.3762 6.43291C17.2613 6.46456 17.1281 6.52443 17.0957 6.55893C17.0634 6.59335 16.8226 6.72025 16.7896 6.72025C16.7828 6.72025 16.7572 6.74118 16.7327 6.76677C16.707 6.79358 16.6721 6.81329 16.6503 6.81329C16.6052 6.81329 16.4716 6.8873 16.3827 6.96154C16.3476 6.99086 16.3038 7.01497 16.2855 7.0151C16.2478 7.01534 16.2333 7.02317 16.0725 7.12956C16.0094 7.17132 15.9333 7.2121 15.9033 7.22019C15.8734 7.2283 15.8349 7.24695 15.8179 7.26167C15.8008 7.27637 15.7206 7.32161 15.6396 7.36219C15.5585 7.40277 15.4746 7.45275 15.4529 7.47323C15.4313 7.49373 15.3894 7.51514 15.3599 7.5208C15.2886 7.53449 15.1121 7.62337 15.0754 7.66409C15.0593 7.68192 15.0209 7.70095 14.9901 7.70638C14.9062 7.72115 14.7539 7.79744 14.7038 7.8497C14.6785 7.87618 14.6355 7.90032 14.603 7.9064C14.5719 7.91222 14.5394 7.92242 14.5309 7.92907C14.5224 7.93572 14.4889 7.94971 14.4565 7.96015C14.4241 7.97057 14.3662 8.00637 14.3277 8.03969C14.2892 8.07301 14.2466 8.10027 14.2331 8.10027C14.2053 8.10027 14.0608 8.19171 13.9838 8.25801C13.9558 8.28212 13.9174 8.30196 13.8985 8.30208C13.8584 8.30234 13.8342 8.31518 13.6874 8.41426C13.6228 8.45785 13.5607 8.48801 13.5351 8.48815C13.4876 8.4884 13.4761 8.49424 13.3178 8.59919C13.2576 8.63907 13.178 8.68712 13.1409 8.70598C13.1037 8.72483 13.0536 8.75674 13.0295 8.7769C13.0054 8.79704 12.969 8.81354 12.9486 8.81354C12.9118 8.81354 12.7643 8.89048 12.664 8.96201C12.635 8.98269 12.5994 8.99961 12.5848 8.99961C12.5385 8.99961 12.3529 9.0917 12.3179 9.13205C12.2993 9.15337 12.2524 9.18041 12.2136 9.19218C12.0891 9.22989 11.992 9.27848 11.931 9.33356C11.8983 9.3631 11.8642 9.38726 11.8551 9.38726C11.8231 9.38726 11.6307 9.48573 11.5904 9.52276C11.5679 9.54343 11.5212 9.56669 11.4867 9.57444C11.4226 9.58885 11.3149 9.65307 11.2237 9.73124C11.1957 9.75526 11.1545 9.7749 11.1321 9.7749C11.1079 9.7749 11.0375 9.81184 10.9582 9.86614C10.8849 9.91631 10.798 9.96483 10.765 9.97393C10.732 9.98305 10.6937 10.0008 10.6797 10.0134C10.6658 10.0259 10.5847 10.0724 10.4994 10.1166C10.4141 10.1609 10.3168 10.2172 10.2831 10.2418C10.2495 10.2665 10.2061 10.2866 10.1867 10.2866C10.148 10.2866 9.96249 10.3834 9.93293 10.419C9.92269 10.4313 9.88546 10.449 9.85021 10.4583C9.75214 10.4841 9.62197 10.5503 9.55735 10.6074C9.52535 10.6356 9.48919 10.6587 9.47699 10.6587C9.42836 10.6587 9.23075 10.7504 9.18428 10.7945C9.1571 10.8203 9.11742 10.8465 9.0961 10.8527C9.04304 10.8682 8.93442 10.9352 8.86396 10.996C8.83182 11.0237 8.78194 11.0507 8.75311 11.0561C8.72429 11.0615 8.64139 11.106 8.56889 11.1551C8.4964 11.2042 8.41111 11.2515 8.37939 11.2603C8.34766 11.2691 8.29882 11.2925 8.27086 11.3125C8.24289 11.3324 8.15393 11.3821 8.07316 11.4229C7.99239 11.4637 7.91181 11.5107 7.8941 11.5273C7.8764 11.544 7.8378 11.5623 7.80837 11.568C7.7494 11.5795 7.60763 11.6533 7.54274 11.7063C7.5199 11.725 7.47621 11.745 7.44564 11.7507C7.37027 11.7648 7.23785 11.8317 7.18113 11.8842C7.15457 11.9087 7.07504 11.9478 6.99576 11.9752C6.90109 12.0079 6.8394 12.0399 6.80193 12.0758C6.7717 12.1047 6.72952 12.1335 6.7082 12.1397C6.65837 12.1542 6.55003 12.22 6.48109 12.2777C6.44741 12.3058 6.39957 12.3272 6.35385 12.3344C6.27537 12.3468 6.19776 12.3885 6.10485 12.4683C6.07304 12.4957 6.01959 12.5244 5.98608 12.5321C5.92944 12.5452 5.81379 12.6122 5.71104 12.6913C5.61658 12.7641 5.6214 12.7041 5.62245 13.7918L5.62341 14.7886L5.66475 14.8807C5.70479 14.9699 5.71003 14.9747 5.83113 15.0329C5.8999 15.0661 5.9715 15.0932 5.99025 15.0933C6.00901 15.0933 6.0439 15.1117 6.06778 15.134C6.11544 15.1786 6.31575 15.2795 6.35664 15.2795C6.37076 15.2795 6.4143 15.3039 6.45341 15.3337C6.49252 15.3636 6.53282 15.388 6.54297 15.388C6.55314 15.388 6.58575 15.4045 6.61545 15.4246C6.64514 15.4447 6.68688 15.4666 6.7082 15.4732C6.72952 15.4799 6.76598 15.5012 6.78922 15.5206C6.81245 15.54 6.8578 15.5643 6.89001 15.5745C6.95203 15.5942 7.06788 15.6615 7.15787 15.73C7.18772 15.7527 7.23728 15.7794 7.26801 15.7894C7.29874 15.7994 7.33955 15.8243 7.3587 15.8446C7.37785 15.865 7.41552 15.8905 7.44239 15.9013C7.46926 15.9121 7.51075 15.9369 7.53458 15.9564C7.55843 15.9759 7.60442 15.9991 7.6368 16.0078C7.66916 16.0165 7.70774 16.037 7.72252 16.0533C7.73729 16.0696 7.76806 16.0877 7.79088 16.0934C7.81371 16.0991 7.87413 16.1242 7.92518 16.1491C7.97622 16.1739 8.02559 16.1943 8.0349 16.1943C8.0442 16.1943 8.06871 16.2123 8.0894 16.2344C8.13294 16.2807 8.33166 16.3804 8.38058 16.3804C8.39888 16.3804 8.42888 16.3954 8.44726 16.4138C8.49275 16.4593 8.66415 16.5471 8.73258 16.5599C8.7633 16.5657 8.8009 16.5838 8.81617 16.6002C8.83143 16.6165 8.90938 16.6632 8.98939 16.7039C9.0694 16.7445 9.16278 16.7961 9.19689 16.8185C9.231 16.8409 9.27984 16.8642 9.30543 16.8703C9.34985 16.8809 9.50339 16.975 9.56903 17.0319C9.58608 17.0467 9.62518 17.0669 9.65591 17.0767C9.68664 17.0865 9.72745 17.1112 9.7466 17.1316C9.76575 17.152 9.80341 17.1775 9.83029 17.1883C9.85716 17.1991 9.90344 17.2241 9.93314 17.2438C9.96283 17.2636 10.0055 17.2797 10.0279 17.2797C10.0503 17.2797 10.095 17.3007 10.1272 17.3262C10.1594 17.3518 10.1939 17.3728 10.2039 17.3728C10.2138 17.3728 10.2495 17.3927 10.2831 17.4171C10.3168 17.4415 10.3653 17.4664 10.3908 17.4725C10.4164 17.4785 10.4548 17.4997 10.4761 17.5194C10.5271 17.5666 10.725 17.6674 10.7667 17.6674C10.7847 17.6674 10.8191 17.684 10.8432 17.7042C10.9084 17.7591 11.0546 17.8345 11.1193 17.8467C11.1505 17.8525 11.1957 17.8738 11.2198 17.8941C11.2796 17.9444 11.4198 18.0166 11.4818 18.029C11.5099 18.0346 11.5584 18.0602 11.5895 18.0859C11.6207 18.1116 11.6546 18.1325 11.665 18.1325C11.6754 18.1325 11.7558 18.1805 11.8437 18.2392C11.9315 18.2978 12.0273 18.3509 12.0565 18.3573C12.0856 18.3636 12.1373 18.3889 12.1712 18.4135C12.2052 18.4381 12.2395 18.4582 12.2476 18.4582C12.2557 18.4582 12.2822 18.4724 12.3066 18.4898C12.331 18.5071 12.3739 18.5291 12.402 18.5387C12.4301 18.5482 12.4793 18.5794 12.5113 18.6079C12.5433 18.6364 12.5789 18.6597 12.5904 18.6597C12.6019 18.6597 12.6385 18.6794 12.6717 18.7035C12.705 18.7275 12.7532 18.7544 12.7788 18.7633C12.8044 18.7722 12.8524 18.7979 12.8856 18.8204C12.9187 18.8429 12.9571 18.8615 12.9709 18.8618C12.9846 18.8621 13.0237 18.8795 13.0578 18.9005C13.092 18.9215 13.1318 18.9387 13.1465 18.9388C13.1611 18.9388 13.196 18.9587 13.224 18.9829C13.2873 19.0376 13.444 19.1193 13.5118 19.1329C13.5397 19.1385 13.5816 19.1588 13.6048 19.178C13.6614 19.2248 13.8175 19.3029 13.899 19.3252C13.9353 19.3351 13.9649 19.3498 13.9649 19.3579C13.9649 19.3659 14.0003 19.3904 14.0437 19.4124C14.0869 19.4343 14.1718 19.485 14.2322 19.5251C14.3911 19.6303 14.4024 19.6361 14.45 19.6364C14.4885 19.6366 14.6957 19.7572 14.7171 19.7919C14.7215 19.7991 14.7512 19.8132 14.7831 19.8234C14.8149 19.8336 14.8619 19.8613 14.8875 19.8851C14.9131 19.9089 14.9585 19.9396 14.9883 19.9533C15.0182 19.967 15.0914 20.0057 15.1511 20.0393C15.2108 20.0728 15.2841 20.1112 15.3139 20.1244C15.3438 20.1377 15.4006 20.166 15.4403 20.1872C15.4799 20.2085 15.5233 20.2258 15.5367 20.2258C15.55 20.2258 15.5839 20.2457 15.6119 20.2699C15.6765 20.3258 15.8325 20.4064 15.9032 20.4205C15.933 20.4265 15.9786 20.4497 16.0045 20.472C16.0545 20.5153 16.209 20.5903 16.278 20.6048C16.3008 20.6096 16.3392 20.6299 16.3633 20.65C16.3874 20.6701 16.4766 20.7227 16.5616 20.7669C16.6466 20.8111 16.7277 20.8578 16.742 20.8707C16.7562 20.8835 16.7938 20.9013 16.8257 20.91C16.8833 20.9259 17.0852 21.0469 17.1035 21.0764C17.1087 21.0849 17.1391 21.1004 17.171 21.1109C17.2028 21.1213 17.2563 21.1532 17.2898 21.1818C17.3234 21.2103 17.3584 21.2337 17.3677 21.2337C17.3769 21.2337 17.4094 21.2506 17.4398 21.2713C17.4702 21.292 17.5225 21.3139 17.5559 21.3201C17.5892 21.3263 17.634 21.3447 17.6553 21.3611C17.7223 21.4126 17.9007 21.5128 17.9253 21.5128C17.9382 21.5128 17.9718 21.5328 17.9998 21.5573C18.064 21.6134 18.2212 21.6931 18.2949 21.7069C18.3258 21.7127 18.3637 21.7315 18.3792 21.7486C18.4138 21.7869 18.5902 21.877 18.6605 21.8923C18.6888 21.8984 18.7342 21.9224 18.7613 21.9456C18.7883 21.9688 18.8333 22.0035 18.8611 22.0229C18.889 22.0422 18.9223 22.0783 18.9352 22.1032C18.9558 22.1432 18.9591 22.7068 18.9633 26.9514C18.9659 29.5931 18.9736 31.781 18.9803 31.8135C18.9906 31.8636 18.987 31.8784 18.9569 31.9104C18.9107 31.9597 18.8335 31.9601 18.7232 31.9117C18.6774 31.8917 18.5946 31.8559 18.5392 31.8323C18.4837 31.8087 18.4174 31.77 18.3918 31.7462C18.3663 31.7224 18.3205 31.6963 18.2902 31.6881C18.2599 31.68 18.1761 31.6346 18.1041 31.5872C18.0321 31.5399 17.9454 31.496 17.9113 31.4897C17.8448 31.4774 17.7252 31.4109 17.6434 31.3409C17.6155 31.317 17.5737 31.2928 17.5504 31.2872C17.5271 31.2815 17.4823 31.2539 17.4508 31.2258C17.4193 31.1977 17.3705 31.163 17.3423 31.1487C17.314 31.1344 17.2805 31.114 17.2677 31.1033C17.2549 31.0926 17.2179 31.0791 17.1854 31.0733C17.1529 31.0675 17.112 31.0483 17.0944 31.0307C17.0632 30.9994 16.8354 30.8783 16.8079 30.8783C16.8002 30.8783 16.7712 30.8576 16.7435 30.8323C16.7158 30.807 16.666 30.779 16.633 30.7701C16.5359 30.7439 16.4104 30.6833 16.3642 30.6403C16.3407 30.6183 16.2942 30.593 16.2611 30.5841C16.1599 30.5568 16.037 30.4962 15.9981 30.4544C15.9779 30.4326 15.9395 30.41 15.9128 30.4042C15.8862 30.3984 15.8268 30.3736 15.7808 30.3491C15.7348 30.3247 15.6888 30.3046 15.6785 30.3046C15.6683 30.3046 15.6475 30.2909 15.6323 30.2742C15.6172 30.2575 15.5795 30.2356 15.5485 30.2257C15.4812 30.204 15.3256 30.1127 15.2569 30.0546C15.2299 30.0317 15.1875 30.0085 15.1628 30.0031C15.1381 29.9977 15.0961 29.9733 15.0694 29.949C14.9881 29.8747 14.8407 29.7929 14.7881 29.7929C14.7556 29.7929 14.7138 29.7735 14.663 29.7348C14.5577 29.6546 14.4889 29.6133 14.4263 29.5926C14.397 29.583 14.3583 29.5582 14.3403 29.5375C14.3224 29.5169 14.2801 29.4925 14.2463 29.4834C14.1447 29.4561 14.0071 29.3896 13.9708 29.3504C13.952 29.3301 13.9168 29.3092 13.8926 29.3039C13.8132 29.2865 13.6635 29.2155 13.6119 29.1706C13.584 29.1464 13.5422 29.1225 13.5189 29.1174C13.4437 29.1011 13.2915 29.0303 13.2514 28.9931C13.23 28.9731 13.1812 28.9458 13.143 28.9323C13.1048 28.9189 13.0169 28.8698 12.9477 28.8232C12.8784 28.7766 12.8052 28.7385 12.785 28.7385C12.7346 28.7385 12.6025 28.6696 12.5162 28.5983C12.4769 28.5659 12.4247 28.5349 12.4002 28.5295C12.3756 28.5241 12.3434 28.5062 12.3285 28.4898C12.2901 28.4474 12.0818 28.3199 12.051 28.3199C12.015 28.3199 11.947 28.2827 11.9119 28.2439C11.8956 28.226 11.8763 28.2113 11.8689 28.2113C11.8373 28.2113 11.5979 28.087 11.5737 28.058C11.559 28.0405 11.5276 28.0219 11.5039 28.0167C11.4256 27.9996 11.2449 27.9143 11.2241 27.8847C11.2129 27.8687 11.1709 27.8456 11.1307 27.8333C11.0171 27.7988 10.89 27.7375 10.858 27.702C10.8421 27.6843 10.8037 27.6616 10.7727 27.6516C10.7418 27.6416 10.6851 27.6169 10.6468 27.5968C10.6085 27.5766 10.5689 27.5601 10.5588 27.5601C10.5488 27.5601 10.5192 27.5421 10.493 27.5201C10.4669 27.4982 10.421 27.4734 10.391 27.4651C10.3302 27.4483 10.2692 27.4127 10.1375 27.317C10.0885 27.2813 10.0289 27.2473 10.005 27.2413C9.98114 27.2353 9.93134 27.2052 9.89433 27.1743C9.85731 27.1434 9.81039 27.1066 9.79008 27.0925C9.76975 27.0784 9.72916 27.0295 9.69985 26.984L9.64656 26.9011L9.65431 24.2574L9.66206 21.6136L9.56774 21.5206C9.46131 21.4156 9.3622 21.351 9.28217 21.3346C9.25232 21.3285 9.21046 21.3076 9.18914 21.2883C9.16781 21.2689 9.08757 21.223 9.01082 21.1863C8.93406 21.1496 8.84915 21.1006 8.82213 21.0774C8.7951 21.0543 8.74455 21.0305 8.70979 21.0246C8.67504 21.0187 8.64297 21.0081 8.63854 21.0009C8.63412 20.9937 8.60443 20.9794 8.57256 20.9691C8.5407 20.9587 8.48844 20.9268 8.45644 20.8982C8.42443 20.8695 8.38399 20.8461 8.36657 20.8461C8.32109 20.8461 8.11689 20.7473 8.08188 20.7083C8.0656 20.6902 8.02398 20.6678 7.98939 20.6584C7.95481 20.6491 7.90961 20.6282 7.88897 20.612C7.86833 20.5958 7.83982 20.5825 7.82558 20.5825C7.81136 20.5825 7.77218 20.5623 7.73852 20.5376C7.70486 20.513 7.65158 20.4857 7.62011 20.4771C7.58865 20.4685 7.53916 20.4433 7.51012 20.4212C7.48107 20.399 7.45199 20.3809 7.4455 20.3809C7.43901 20.3809 7.40713 20.3599 7.37467 20.3342C7.34222 20.3085 7.28888 20.2762 7.25615 20.2626C7.22341 20.249 7.17118 20.2159 7.14005 20.1892C7.04364 20.1063 6.94815 20.0553 6.88957 20.0553C6.85217 20.0553 6.81857 20.0417 6.78432 20.0126C6.72205 19.9599 6.6443 19.911 6.55314 19.8673C6.51477 19.8489 6.46045 19.8139 6.43243 19.7895C6.40443 19.7651 6.36749 19.7452 6.35039 19.7452C6.30655 19.7452 6.11889 19.656 6.07246 19.6131C6.05114 19.5934 6.00241 19.569 5.96417 19.5589C5.92592 19.5487 5.86965 19.5206 5.83913 19.4965C5.8086 19.4723 5.76462 19.4438 5.7414 19.4333C5.688 19.4089 5.65777 19.4348 5.63752 19.522C5.62937 19.5572 5.62338 21.5726 5.62317 24.3538L5.62279 29.1253L5.66314 29.2106C5.6997 29.2878 5.71437 29.3016 5.81939 29.3583C5.88314 29.3927 5.95166 29.4208 5.97167 29.4208C5.99169 29.4208 6.02894 29.4384 6.05448 29.4598C6.11617 29.5118 6.30415 29.6062 6.3465 29.6066C6.36504 29.6067 6.39993 29.6234 6.42403 29.6435C6.44814 29.6637 6.4985 29.6957 6.53596 29.7147C6.57343 29.7337 6.65765 29.7862 6.72313 29.8313C6.80052 29.8846 6.86625 29.9174 6.91088 29.9249C6.97532 29.9357 7.06377 29.9854 7.16136 30.0657C7.18459 30.0848 7.22994 30.1089 7.26215 30.1194C7.29434 30.1299 7.34687 30.1619 7.37888 30.1905C7.41088 30.2192 7.44698 30.2426 7.45909 30.2426C7.4712 30.2426 7.50084 30.259 7.52494 30.2791C7.54905 30.2992 7.59382 30.3238 7.62443 30.3338C7.65502 30.3437 7.70347 30.3692 7.7321 30.3903C7.76072 30.4114 7.7915 30.4287 7.80049 30.4287C7.8095 30.4288 7.85873 30.4497 7.9099 30.4752C7.96107 30.5007 8.01058 30.5216 8.01992 30.5216C8.02925 30.5217 8.04949 30.5356 8.06487 30.5526C8.10449 30.5964 8.31605 30.7078 8.35957 30.7078C8.37959 30.7078 8.41569 30.7242 8.43978 30.7444C8.50068 30.7952 8.69583 30.8939 8.7354 30.8939C8.75339 30.8939 8.78783 30.9104 8.81192 30.9307C8.83604 30.9509 8.92302 31.0022 9.00524 31.0445C9.08745 31.0869 9.17324 31.1361 9.19591 31.1539C9.21857 31.1717 9.25945 31.191 9.28678 31.1968C9.33579 31.2071 9.46703 31.2851 9.54926 31.3527C9.57249 31.3717 9.61784 31.3959 9.65005 31.4064C9.68224 31.4169 9.73477 31.4489 9.76677 31.4775C9.79878 31.5061 9.83405 31.5296 9.84517 31.5296C9.85627 31.5296 9.88901 31.547 9.91791 31.5684C9.94681 31.5897 9.98905 31.6071 10.0118 31.6071C10.0345 31.6071 10.0789 31.6246 10.1105 31.646C10.142 31.6674 10.194 31.6983 10.2261 31.7147C10.2581 31.731 10.2933 31.7552 10.3043 31.7684C10.3152 31.7816 10.3477 31.7968 10.3764 31.8022C10.4051 31.8076 10.4446 31.8278 10.464 31.8471C10.5066 31.8894 10.712 31.9948 10.7518 31.9948C10.7674 31.9948 10.8077 32.0148 10.8413 32.0392C10.9299 32.1036 11.0832 32.1808 11.1223 32.1808C11.1408 32.1808 11.1757 32.1973 11.1998 32.2174C11.265 32.2718 11.4571 32.3669 11.5017 32.3669C11.5231 32.3669 11.5562 32.3835 11.5752 32.4037C11.5942 32.4239 11.639 32.4535 11.6748 32.4694C11.7106 32.4853 11.7977 32.5385 11.8684 32.5876C11.9433 32.6398 12.0134 32.677 12.0366 32.677C12.0903 32.677 12.1561 32.7104 12.267 32.7938C12.3182 32.8323 12.3848 32.8705 12.4151 32.8787C12.4453 32.8869 12.4903 32.9146 12.5149 32.9404C12.5395 32.9661 12.5674 32.9871 12.5767 32.9871C12.5861 32.9871 12.6316 33.0116 12.6779 33.0414C12.7243 33.0713 12.7722 33.0957 12.7845 33.0957C12.7968 33.0957 12.8284 33.1121 12.8548 33.1322C12.8812 33.1523 12.9202 33.174 12.9415 33.1803C12.9629 33.1867 13.0082 33.2077 13.0423 33.2269C13.0764 33.2461 13.1232 33.2664 13.1463 33.2719C13.1694 33.2775 13.2078 33.3001 13.2316 33.3223C13.2877 33.3744 13.4729 33.4678 13.5202 33.4678C13.5404 33.4678 13.5703 33.4827 13.5865 33.501C13.6217 33.5405 13.8494 33.6539 13.8935 33.6539C13.9105 33.6539 13.9423 33.6707 13.9641 33.6911C13.9859 33.7116 14.07 33.7618 14.151 33.8027C14.232 33.8435 14.3192 33.8921 14.3448 33.9107C14.3704 33.9292 14.4123 33.9491 14.4379 33.9549C14.4634 33.9606 14.5515 34.0104 14.6337 34.0654C14.7158 34.1205 14.794 34.1656 14.8076 34.1656C14.8211 34.1656 14.8551 34.1856 14.8831 34.21C14.9111 34.2344 14.9647 34.2711 15.0021 34.2914C15.0395 34.3118 15.0848 34.337 15.1028 34.3475C15.1209 34.3581 15.1543 34.3668 15.1771 34.3669C15.1999 34.3671 15.2383 34.3837 15.2624 34.4038C15.2865 34.424 15.3354 34.4553 15.371 34.4734C15.4067 34.4915 15.4399 34.5128 15.4449 34.5208C15.4498 34.5288 15.4892 34.5471 15.5323 34.5614C15.5755 34.5757 15.6144 34.597 15.6189 34.6086C15.6288 34.6344 15.8669 34.7548 15.908 34.7548C15.9242 34.7548 15.9594 34.7733 15.9862 34.7959C16.0443 34.8449 16.239 34.9409 16.2804 34.9409C16.2965 34.9409 16.3305 34.9585 16.3561 34.98C16.4139 35.0287 16.5649 35.1045 16.6342 35.1197C16.6628 35.126 16.7105 35.1511 16.7401 35.1755C16.7698 35.2 16.8019 35.22 16.8116 35.22C16.8212 35.22 16.9016 35.2688 16.9902 35.3284C17.0964 35.3998 17.1666 35.4368 17.1961 35.4369C17.2445 35.4371 17.3093 35.4715 17.4305 35.5617C17.4731 35.5934 17.5333 35.6274 17.5643 35.6373C17.5952 35.6472 17.6336 35.6697 17.6496 35.6874C17.6655 35.705 17.7065 35.7335 17.7406 35.7506C17.7747 35.7678 17.8134 35.7913 17.8267 35.8028C17.8399 35.8144 17.8815 35.8348 17.9192 35.8481C17.957 35.8614 18.002 35.8852 18.0193 35.901C18.0366 35.9168 18.0682 35.9349 18.0895 35.9412C18.159 35.9619 18.3841 36.0728 18.3841 36.0863C18.3841 36.1034 18.5946 36.2085 18.6554 36.2218C18.681 36.2273 18.716 36.2446 18.7331 36.2601C18.7781 36.3007 18.96 36.393 19.0216 36.4065C19.0505 36.4128 19.0936 36.4343 19.1175 36.4543C19.1413 36.4743 19.2216 36.52 19.2958 36.5559C19.37 36.5918 19.4505 36.6373 19.4746 36.6571C19.4987 36.6769 19.5371 36.6974 19.5599 36.7026C19.6134 36.715 19.7205 36.7751 19.8184 36.8477C19.861 36.8793 19.9212 36.9135 19.9522 36.9237C19.9831 36.9339 20.0215 36.957 20.0375 36.975C20.0534 36.9929 20.0944 37.0213 20.1285 37.038C20.1626 37.0547 20.2149 37.0816 20.2448 37.0978C20.2746 37.1139 20.3138 37.1272 20.3318 37.1272C20.3498 37.1272 20.3909 37.1481 20.4231 37.1737C20.4553 37.1993 20.4906 37.2202 20.5016 37.2202C20.5126 37.2202 20.5429 37.2382 20.569 37.2602C20.5951 37.2822 20.6428 37.3072 20.6749 37.3159C20.707 37.3245 20.7542 37.3515 20.7797 37.3759C20.8389 37.4323 20.9252 37.4684 21.0002 37.4681C21.0649 37.4678 21.0706 37.465 21.2442 37.3482C21.3108 37.3034 21.3773 37.2667 21.3921 37.2667C21.4068 37.2667 21.446 37.2481 21.4792 37.2254C21.5124 37.2026 21.6023 37.1528 21.6791 37.1147C21.7558 37.0765 21.8448 37.0218 21.8768 36.9932C21.9088 36.9646 21.9467 36.9411 21.9609 36.9411C22.013 36.9411 22.1921 36.8592 22.2402 36.8134C22.2864 36.7695 22.484 36.6775 22.5324 36.6775C22.5443 36.6775 22.577 36.6578 22.605 36.6338C22.633 36.6097 22.7229 36.5577 22.8047 36.5183C22.9497 36.4484 22.9543 36.4445 22.9873 36.3653L23.0211 36.2839L23.0204 33.2206C23.02 31.5358 23.0242 28.3501 23.0298 26.1413L23.04 22.1253L23.1137 22.0533C23.1543 22.0136 23.2079 21.9767 23.2329 21.9712C23.2579 21.9657 23.3001 21.9415 23.3265 21.9173C23.353 21.8931 23.3997 21.8686 23.4304 21.8629C23.4877 21.8521 23.5935 21.7889 23.6838 21.7115C23.7214 21.6793 23.751 21.6679 23.7974 21.6679C23.8512 21.6679 23.8766 21.6544 23.9759 21.5733C24.0617 21.5031 24.1077 21.4765 24.1536 21.4704C24.1946 21.4649 24.266 21.4286 24.3642 21.3634C24.4459 21.3091 24.5208 21.2647 24.5305 21.2647C24.5403 21.2647 24.582 21.2368 24.6233 21.2027C24.6646 21.1686 24.7084 21.1407 24.7208 21.1407C24.7665 21.1407 24.9674 21.0456 24.9973 21.0098C25.0296 20.9712 25.1655 20.9049 25.2701 20.8767C25.3034 20.8677 25.3433 20.8467 25.359 20.83C25.3929 20.7935 25.5509 20.715 25.6215 20.6996C25.6492 20.6935 25.7004 20.6647 25.7353 20.6355C25.7703 20.6063 25.8057 20.5825 25.8142 20.5825C25.8424 20.5825 26.0429 20.4776 26.0892 20.4387C26.1143 20.4175 26.1597 20.3956 26.1902 20.3899C26.2538 20.3779 26.3307 20.3337 26.4173 20.2591C26.4505 20.2305 26.5047 20.2011 26.5377 20.1937C26.5706 20.1862 26.6541 20.1419 26.7232 20.0952C26.7922 20.0484 26.8787 19.995 26.9154 19.9763C26.9521 19.9577 27.0018 19.926 27.0259 19.9058C27.05 19.8857 27.0834 19.8692 27.1 19.8692C27.1502 19.8692 27.3606 19.7617 27.3859 19.723C27.4095 19.6871 27.5867 19.6037 27.6837 19.5829C27.7114 19.577 27.7435 19.5586 27.7551 19.5421C27.7803 19.5061 27.9414 19.4257 28.0165 19.4116C28.0461 19.4061 28.0971 19.3776 28.1298 19.3485C28.1626 19.3193 28.1956 19.2955 28.2031 19.2955C28.2329 19.2955 28.4266 19.1953 28.4651 19.16C28.4876 19.1393 28.5344 19.116 28.5691 19.1082C28.631 19.0943 28.7124 19.0488 28.8198 18.968C28.8495 18.9457 28.9043 18.9228 28.9415 18.9171C28.9926 18.9094 29.0363 18.8847 29.12 18.8163C29.2007 18.7504 29.249 18.7227 29.2971 18.7145C29.3384 18.7076 29.4095 18.672 29.4867 18.6198C29.5546 18.5738 29.6355 18.5256 29.6666 18.5126C29.6976 18.4996 29.75 18.4646 29.783 18.4348C29.816 18.405 29.8546 18.3806 29.8689 18.3806C29.9228 18.3806 30.1004 18.2994 30.1375 18.2577C30.1795 18.2107 30.2881 18.1566 30.4047 18.1246C30.4463 18.1132 30.4989 18.0837 30.5261 18.0565C30.5525 18.0301 30.5824 18.0085 30.5925 18.0085C30.6026 18.0085 30.6352 17.9956 30.6649 17.9798C30.6947 17.964 30.7442 17.9464 30.775 17.9407C30.8058 17.935 30.8441 17.9159 30.8602 17.8982C30.8762 17.8805 30.9556 17.834 31.0367 17.7949C31.1178 17.7559 31.2071 17.7042 31.2351 17.6801C31.2631 17.6561 31.3044 17.6364 31.3268 17.6364C31.3695 17.6364 31.4815 17.5721 31.5889 17.4858C31.6239 17.4578 31.6693 17.4348 31.6897 17.4347C31.7302 17.4346 31.743 17.4272 31.9527 17.2823C32.1562 17.1416 32.2248 17.122 32.2967 17.1837C32.3224 17.2058 32.3238 17.4572 32.3238 22.0584C32.3238 26.2461 32.3208 26.9172 32.3015 26.9633C32.2662 27.0477 32.1427 27.1699 32.074 27.1884C31.9672 27.2172 31.8209 27.2923 31.7759 27.3415C31.7518 27.3679 31.7201 27.3895 31.7057 27.3895C31.6765 27.3895 31.5414 27.4705 31.4522 27.5416C31.4205 27.5668 31.3695 27.5921 31.3389 27.5979C31.3083 27.6036 31.2471 27.6359 31.2027 27.6697C31.106 27.7434 31.0089 27.7927 30.9607 27.7927C30.9412 27.7927 30.865 27.8327 30.7912 27.8815C30.7173 27.9304 30.6256 27.9851 30.5872 28.0031C30.5488 28.0211 30.508 28.0472 30.4965 28.0612C30.485 28.0751 30.4503 28.0912 30.4194 28.097C30.3561 28.1089 30.1772 28.1981 30.1299 28.2415C30.1128 28.2572 30.0751 28.275 30.0462 28.2811C29.9779 28.2956 29.7995 28.3888 29.7499 28.4359C29.7286 28.4562 29.6902 28.4779 29.6646 28.4842C29.5796 28.5052 29.4481 28.5698 29.401 28.6139C29.3754 28.6378 29.3284 28.6656 29.2965 28.6758C29.2647 28.686 29.2346 28.7009 29.2296 28.7089C29.2246 28.7169 29.1949 28.7369 29.1635 28.7532C29.1321 28.7696 29.087 28.8013 29.0633 28.8238C29.0362 28.8495 28.9933 28.8689 28.947 28.8763C28.8719 28.8883 28.7658 28.9455 28.6933 29.013C28.6708 29.034 28.6244 29.0575 28.5903 29.0651C28.5562 29.0728 28.4714 29.1182 28.402 29.1661C28.3325 29.2139 28.2501 29.2601 28.2189 29.2687C28.1876 29.2774 28.1408 29.3 28.1148 29.3191C28.0888 29.3381 28.0012 29.387 27.9202 29.4276C27.8392 29.4682 27.7589 29.5139 27.7419 29.5292C27.7248 29.5445 27.6872 29.562 27.6583 29.5681C27.5916 29.5823 27.4128 29.675 27.362 29.7218C27.3407 29.7415 27.3008 29.7704 27.2733 29.7861C27.2459 29.8017 27.219 29.8254 27.2137 29.8386C27.2084 29.8519 27.2051 30.7746 27.2063 31.8891C27.208 33.3132 27.2036 33.9342 27.1917 33.9785C27.1689 34.0631 27.1904 34.1036 27.2579 34.1033C27.2853 34.1032 27.3229 34.0945 27.3415 34.0839C27.5578 33.9615 27.6096 33.9353 27.6539 33.9257C27.6822 33.9195 27.7276 33.8952 27.7546 33.8717C27.8078 33.8254 27.9169 33.7723 28.0296 33.738C28.0685 33.7262 28.1163 33.6995 28.1358 33.6787C28.1553 33.658 28.1897 33.6364 28.2124 33.6308C28.2572 33.6196 28.4009 33.5304 28.4629 33.4753C28.4842 33.4563 28.5328 33.4361 28.5709 33.4303C28.6432 33.4194 28.7603 33.3556 28.8472 33.2797C28.8781 33.2528 28.9158 33.2352 28.9429 33.2352C28.9676 33.2352 29.0074 33.219 29.0315 33.1992C29.1019 33.1413 29.2431 33.052 29.3055 33.0259C29.3372 33.0127 29.3782 32.9845 29.3967 32.9632C29.4152 32.9419 29.4621 32.915 29.501 32.9033C29.6156 32.8689 29.7399 32.8081 29.7731 32.7702C29.8066 32.732 29.9615 32.6565 30.0431 32.6386C30.0707 32.6325 30.1155 32.6083 30.1425 32.5848C30.1926 32.5413 30.3433 32.4699 30.4202 32.4532C30.4435 32.4481 30.4854 32.4246 30.5133 32.401C30.5411 32.3773 30.6232 32.3308 30.6957 32.2977C30.7682 32.2646 30.8504 32.2178 30.8785 32.1936C30.9065 32.1695 30.9476 32.1498 30.9699 32.1498C31.0111 32.1498 31.1429 32.0714 31.2351 31.9921C31.2656 31.9658 31.304 31.9482 31.3308 31.9482C31.3555 31.9482 31.3953 31.9324 31.4194 31.9129C31.4739 31.869 31.6153 31.7769 31.6966 31.7324C31.7303 31.714 31.7816 31.6817 31.8106 31.6608C31.8395 31.6398 31.8779 31.6226 31.8958 31.6226C31.9448 31.6225 32.135 31.5218 32.1698 31.4776C32.1866 31.4562 32.2263 31.4303 32.2582 31.4198C32.29 31.4094 32.33 31.3922 32.3471 31.3817C32.3642 31.3711 32.4032 31.3581 32.4338 31.3528C32.4644 31.3474 32.5063 31.325 32.5268 31.3031C32.5689 31.2581 32.7241 31.1828 32.807 31.1672C32.837 31.1616 32.8784 31.1389 32.899 31.1168C32.9391 31.0736 33.0621 31.0133 33.1665 30.9858C33.2019 30.9764 33.2519 30.9492 33.2775 30.9253C33.303 30.9013 33.3414 30.8767 33.3627 30.8705C33.4075 30.8576 33.554 30.7658 33.6108 30.7151C33.6341 30.6944 33.6775 30.6775 33.7194 30.673C33.7874 30.6657 33.9479 30.5749 33.9967 30.5161C34.0079 30.5026 34.0426 30.487 34.0737 30.4815C34.1048 30.476 34.1896 30.4313 34.2621 30.3821C34.3346 30.333 34.4183 30.2824 34.4481 30.2697C34.478 30.2571 34.525 30.2249 34.5527 30.1982C34.5803 30.1714 34.613 30.1496 34.6253 30.1496C34.6775 30.1496 34.869 30.0582 34.9275 30.0053C34.9624 29.9738 34.9983 29.948 35.0073 29.948C35.0162 29.948 35.0528 29.9348 35.0886 29.9187C35.1244 29.9027 35.1753 29.8849 35.2019 29.8792C35.2284 29.8736 35.2698 29.8484 35.2939 29.8232C35.3181 29.798 35.3432 29.7774 35.3499 29.7774C35.3566 29.7774 35.3989 29.7608 35.4439 29.7404C35.489 29.72 35.5475 29.6988 35.574 29.6931C35.6005 29.6875 35.642 29.6623 35.6661 29.6371C35.6902 29.612 35.7168 29.5914 35.7252 29.5914C35.7546 29.5914 35.9758 29.4773 36.0142 29.4424C36.0356 29.423 36.0824 29.4005 36.1183 29.3925C36.2169 29.3704 36.3017 29.2953 36.3324 29.2029C36.3562 29.1311 36.3581 28.5331 36.3578 21.0434C36.3575 16.1165 36.363 12.9359 36.3718 12.896C36.3898 12.8145 36.372 12.7718 36.2995 12.7221C36.2698 12.7017 36.2314 12.6654 36.2143 12.6414C36.1947 12.6138 36.1592 12.5914 36.1181 12.5806C36.0235 12.5558 35.8716 12.4817 35.8373 12.4436C35.821 12.4255 35.7813 12.4036 35.7489 12.3949C35.7165 12.3862 35.6326 12.3404 35.5625 12.2932C35.4875 12.2427 35.4082 12.2023 35.37 12.1952C35.3075 12.1835 35.1262 12.0851 35.1055 12.0516C35.1 12.0426 35.0594 12.0194 35.0154 11.9999C34.9714 11.9804 34.9264 11.9537 34.9154 11.9405C34.8831 11.9016 34.6714 11.7752 34.6386 11.7752C34.6221 11.7752 34.5777 11.7549 34.5399 11.73C34.477 11.6886 34.4334 11.6759 34.3697 11.6804C34.3564 11.6813 34.3041 11.7073 34.2534 11.738C34.2027 11.7688 34.129 11.8037 34.0895 11.8156C34.05 11.8275 34.0092 11.8475 33.9988 11.86C33.9884 11.8725 33.9094 11.9185 33.8231 11.9621C33.7369 12.0058 33.6463 12.0583 33.6219 12.0789C33.5974 12.0995 33.5627 12.1163 33.5447 12.1163C33.5052 12.1163 33.31 12.215 33.2491 12.2658C33.225 12.2859 33.191 12.3024 33.1735 12.3024C33.1281 12.3024 32.9166 12.4084 32.892 12.4435C32.8737 12.4696 32.8299 12.4886 32.6367 12.5543C32.6083 12.564 32.5577 12.5985 32.5242 12.6309C32.4907 12.6634 32.4562 12.69 32.4474 12.69C32.4168 12.69 32.1968 12.8015 32.1653 12.833C32.1478 12.8505 32.1067 12.8708 32.0739 12.8782C32.0125 12.892 31.8651 12.9775 31.7966 13.0391C31.7753 13.0582 31.7319 13.0785 31.7002 13.0841C31.6685 13.0898 31.6231 13.1103 31.5994 13.1298C31.5155 13.1988 31.3821 13.2792 31.3515 13.2792C31.3345 13.2792 31.2968 13.296 31.2679 13.3164C31.2389 13.3369 31.1455 13.39 31.0603 13.4344C30.9751 13.4789 30.8856 13.5319 30.8614 13.5523C30.8372 13.5727 30.8007 13.5893 30.7804 13.5893C30.7396 13.5893 30.5581 13.6829 30.4891 13.7395C30.465 13.7592 30.4297 13.7754 30.4106 13.7754C30.3626 13.7754 30.159 13.8779 30.1328 13.9153C30.1137 13.9426 30.0692 13.962 29.8753 14.0278C29.8461 14.0377 29.8008 14.0678 29.7745 14.0946C29.7482 14.1215 29.7092 14.1487 29.6878 14.1551C29.6358 14.1708 29.4356 14.2954 29.4008 14.3339C29.3855 14.3508 29.3548 14.3647 29.3327 14.3647C29.3106 14.3648 29.2743 14.377 29.2522 14.3918C29.2301 14.4067 29.171 14.4463 29.1209 14.4797C29.0708 14.5131 29.0006 14.5459 28.9649 14.5526C28.9246 14.5601 28.8424 14.6034 28.7491 14.6663C28.6662 14.7221 28.5905 14.7678 28.581 14.7679C28.5715 14.768 28.533 14.7924 28.4956 14.8222C28.4581 14.852 28.4124 14.8763 28.3939 14.8763C28.3493 14.8763 28.1515 14.9745 28.1152 15.0146C28.0994 15.032 28.0615 15.051 28.0309 15.0567C27.9665 15.0688 27.7879 15.1587 27.7413 15.2025C27.7237 15.219 27.6853 15.2373 27.6558 15.2432C27.5773 15.2589 27.4232 15.3388 27.3697 15.3916C27.3255 15.4353 27.1881 15.5001 27.0976 15.52C27.0746 15.525 27.0402 15.5457 27.0213 15.5659C27.0023 15.5861 26.9648 15.6113 26.9379 15.6219C26.8682 15.6494 26.7119 15.7438 26.652 15.7945C26.624 15.8183 26.5857 15.8377 26.5668 15.8377C26.5479 15.8378 26.5115 15.8517 26.4859 15.8687C26.3058 15.9883 26.2197 16.0393 26.1977 16.0393C26.1838 16.0393 26.146 16.0572 26.1137 16.079C26.0815 16.1009 26.0229 16.1347 25.9836 16.1541C25.8475 16.2213 25.7575 16.2734 25.7256 16.3033C25.708 16.3199 25.6695 16.3381 25.6401 16.3439C25.5715 16.3573 25.4119 16.4363 25.3617 16.4817C25.3404 16.5009 25.2985 16.5218 25.2687 16.528C25.191 16.5442 25.0194 16.6338 24.9753 16.6812C24.9546 16.7034 24.929 16.7215 24.9184 16.7215C24.9079 16.7215 24.8428 16.743 24.7739 16.7694C24.6856 16.8031 24.6392 16.8305 24.6165 16.8624C24.5988 16.8872 24.5759 16.9076 24.5656 16.9076C24.5553 16.9076 24.5052 16.9283 24.4542 16.9536C24.4033 16.9789 24.3539 16.9999 24.3445 17.0001C24.3351 17.0004 24.3087 17.0179 24.2858 17.0391C24.2347 17.0865 24.1936 17.1092 24.1588 17.1092C24.1303 17.1092 23.9488 17.2177 23.894 17.2675C23.8756 17.2842 23.8322 17.3043 23.7974 17.3121C23.7627 17.3199 23.6975 17.3543 23.6525 17.3885C23.6076 17.4227 23.5394 17.4649 23.501 17.4822C23.4626 17.4996 23.4068 17.527 23.377 17.5432C23.2724 17.5999 23.1361 17.6715 23.0746 17.702C23.0405 17.7189 22.9951 17.7487 22.9738 17.7682C22.9525 17.7877 22.9106 17.8088 22.8808 17.815C22.8078 17.8302 22.632 17.9197 22.5954 17.9603C22.5792 17.9783 22.5509 17.993 22.5326 17.993C22.4839 17.993 22.2589 18.108 22.2163 18.1546C22.1962 18.1766 22.1648 18.1946 22.1465 18.1947C22.1282 18.1947 22.0958 18.2037 22.0745 18.2147C22.0532 18.2256 22.0031 18.2468 21.9633 18.2619C21.9235 18.2769 21.8801 18.3057 21.867 18.3258C21.8538 18.3459 21.8179 18.3707 21.7872 18.3808C21.7265 18.4008 21.5985 18.4784 21.5226 18.5413C21.4963 18.5631 21.4467 18.5872 21.4125 18.5949C21.3783 18.6026 21.3126 18.6388 21.2666 18.6753C21.1287 18.7847 21.0681 18.8004 20.9122 18.767C20.8632 18.7565 20.81 18.7303 20.7704 18.6972C20.7356 18.6681 20.6983 18.6442 20.6875 18.6442C20.6768 18.6442 20.6369 18.6277 20.5988 18.6074C20.5607 18.5872 20.5126 18.5654 20.4919 18.5591C20.4711 18.5528 20.4312 18.5304 20.4031 18.5094C20.3751 18.4884 20.3313 18.4652 20.3058 18.4579C20.2549 18.4433 20.1568 18.3854 20.0477 18.3054C20.0087 18.2768 19.9551 18.2463 19.9286 18.2374C19.9021 18.2286 19.8595 18.2026 19.8339 18.1797C19.7532 18.1072 19.6348 18.0435 19.5647 18.0349C19.5234 18.0298 19.4811 18.0118 19.4561 17.9888C19.3954 17.9328 19.2505 17.8418 19.2035 17.8301C19.1808 17.8244 19.1464 17.8028 19.1269 17.7821C19.1074 17.7613 19.0596 17.7347 19.0207 17.7228C18.907 17.6881 18.7988 17.6353 18.7441 17.5877C18.7161 17.5633 18.6825 17.5433 18.6696 17.5433C18.6245 17.5433 18.4262 17.4497 18.3738 17.4036C18.3447 17.3781 18.3118 17.3573 18.3006 17.3573C18.2894 17.3573 18.249 17.3407 18.2109 17.3204C18.1728 17.3002 18.1247 17.2784 18.104 17.2721C18.0832 17.2658 18.0453 17.245 18.0197 17.226C17.9941 17.207 17.9453 17.1825 17.9112 17.1716C17.8771 17.1608 17.8352 17.1402 17.8181 17.1259C17.7432 17.0631 17.6047 16.9843 17.5458 16.9711C17.5106 16.9632 17.4668 16.9429 17.4484 16.926C17.43 16.909 17.3456 16.8596 17.2608 16.8162C17.1761 16.7727 17.0888 16.7209 17.067 16.701C17.0032 16.643 16.8774 16.5704 16.8092 16.5524C16.7746 16.5433 16.7297 16.5183 16.7096 16.4969C16.6895 16.4754 16.6661 16.4579 16.6575 16.4579C16.6263 16.4579 16.4056 16.3422 16.3562 16.2999C16.3282 16.2759 16.2946 16.2563 16.2817 16.2563C16.2366 16.2563 16.0383 16.1627 15.9859 16.1166C15.9568 16.0911 15.9225 16.0703 15.9095 16.0703C15.8654 16.0703 15.6667 15.977 15.6161 15.9326C15.5884 15.9083 15.5411 15.8837 15.5111 15.8781C15.4811 15.8725 15.4484 15.858 15.4383 15.8458C15.4282 15.8337 15.3944 15.8154 15.3631 15.8051C15.3318 15.7949 15.2853 15.7709 15.2597 15.752C15.2341 15.733 15.1863 15.7089 15.1535 15.6984C15.0853 15.6765 15.0192 15.6375 14.9113 15.5553C14.8697 15.5237 14.8171 15.4931 14.7943 15.4874C14.7715 15.4817 14.7226 15.4517 14.6856 15.4209C14.5884 15.3398 14.488 15.2809 14.4281 15.2697C14.3993 15.2643 14.3584 15.2442 14.3371 15.2251C14.3158 15.2059 14.2355 15.1602 14.1588 15.1235C14.082 15.0868 13.9971 15.0378 13.9701 15.0146C13.943 14.9915 13.8925 14.9677 13.8577 14.9618C13.823 14.956 13.7909 14.9453 13.7865 14.9381C13.7821 14.931 13.7524 14.9166 13.7205 14.9063C13.6886 14.8959 13.6364 14.864 13.6044 14.8354C13.5724 14.8067 13.532 14.7833 13.5146 14.7833C13.4679 14.7833 13.2827 14.6931 13.224 14.6417C13.196 14.6173 13.1627 14.5972 13.15 14.5972C13.1161 14.5972 12.8731 14.4796 12.8504 14.4521C12.8396 14.4392 12.8087 14.4239 12.7815 14.4181C12.729 14.407 12.6428 14.3578 12.5306 14.2751C12.4928 14.2472 12.431 14.2112 12.3933 14.195C12.3556 14.1788 12.3202 14.1583 12.3146 14.1493C12.309 14.1402 12.2752 14.125 12.2394 14.1154C12.2036 14.1057 12.1555 14.0844 12.1325 14.0681C12.1096 14.0517 12.0632 14.0286 12.0295 14.0167C11.9467 13.9875 11.8613 13.9301 11.8391 13.8886C11.8248 13.8621 11.8251 13.8439 11.8405 13.8068C11.8676 13.7414 11.9985 13.6048 12.034 13.6048C12.0887 13.6048 12.267 13.5242 12.3165 13.4772C12.3626 13.4332 12.5603 13.3412 12.6087 13.3412C12.6206 13.3412 12.654 13.3205 12.6828 13.2952C12.738 13.2467 12.8394 13.1976 12.9584 13.1615C12.9975 13.1497 13.0424 13.1257 13.0581 13.1083C13.0739 13.0909 13.1535 13.0445 13.2351 13.0052C13.3167 12.9659 13.4032 12.9173 13.4273 12.8972C13.4514 12.877 13.4865 12.8606 13.5053 12.8606C13.5417 12.8606 13.6695 12.7859 13.7689 12.7067C13.8018 12.6804 13.8437 12.6589 13.8619 12.6588C13.8999 12.6585 13.9154 12.65 14.0776 12.5407C14.1426 12.497 14.2198 12.4567 14.2493 12.4511C14.2788 12.4456 14.3113 12.431 14.3215 12.4187C14.3317 12.4064 14.4109 12.3606 14.4975 12.317C14.5841 12.2734 14.6759 12.218 14.7015 12.1938C14.727 12.1697 14.7794 12.1417 14.8178 12.1316C14.8561 12.1215 14.8945 12.1079 14.903 12.1014C14.9116 12.0949 14.9381 12.0849 14.9621 12.0791C14.9861 12.0734 15.0349 12.0426 15.0706 12.0106C15.1307 11.9568 15.2224 11.9123 15.3625 11.8689C15.3934 11.8594 15.4318 11.8369 15.4477 11.819C15.4797 11.7831 15.6371 11.7075 15.7157 11.6902C15.7433 11.6841 15.7881 11.6598 15.8152 11.6362C15.8422 11.6126 15.8813 11.588 15.9019 11.5815C15.9487 11.5669 16.0994 11.4728 16.1513 11.4258C16.1726 11.4065 16.2214 11.3858 16.2598 11.3797C16.3333 11.3682 16.4503 11.3049 16.5356 11.2304C16.5664 11.2035 16.6042 11.1859 16.6313 11.1859C16.6559 11.1859 16.6958 11.1696 16.7199 11.1496C16.7792 11.1005 16.9395 10.9974 16.9943 10.973C17.0188 10.9622 17.0625 10.9325 17.0915 10.907C17.1205 10.8816 17.1633 10.8566 17.1865 10.8515C17.274 10.8325 17.4169 10.7635 17.4693 10.715C17.5195 10.6685 17.6116 10.6249 17.7504 10.5819C17.7813 10.5724 17.8197 10.55 17.8356 10.5323C17.8693 10.4949 18.0076 10.4292 18.0972 10.408C18.1314 10.4 18.1802 10.3742 18.2058 10.3506C18.2314 10.3271 18.3116 10.281 18.3841 10.248C18.4566 10.2151 18.5388 10.1685 18.5668 10.1443C18.5948 10.1202 18.6324 10.1005 18.6502 10.1005C18.6907 10.1005 18.8277 10.023 18.9124 9.95227C18.9521 9.91912 18.9928 9.89895 19.0201 9.89895C19.0442 9.89895 19.0837 9.88262 19.1078 9.86265C19.1614 9.81827 19.2942 9.73381 19.4036 9.67453C19.4484 9.65027 19.485 9.62484 19.485 9.618C19.485 9.61118 19.5147 9.59724 19.5509 9.58705C19.6582 9.55686 19.8109 9.48029 19.8469 9.43861C19.8838 9.39594 20.0465 9.31633 20.1282 9.30101C20.1568 9.29565 20.1964 9.27382 20.2163 9.2525C20.2574 9.20855 20.4134 9.13329 20.4953 9.11792C20.5254 9.11229 20.5668 9.0895 20.5873 9.06728C20.6079 9.04506 20.6561 9.01299 20.6945 8.99601C20.8708 8.91799 21.0248 8.86006 21.0558 8.86007C21.0746 8.86007 21.1492 8.89538 21.2217 8.93855C21.2942 8.9817 21.3814 9.0294 21.4155 9.04455C21.4496 9.0597 21.4871 9.08368 21.4988 9.09782C21.5104 9.11198 21.5532 9.13341 21.5937 9.14546C21.6343 9.15751 21.7251 9.20706 21.7956 9.2556C21.8661 9.30413 21.9454 9.35107 21.972 9.35987C21.9985 9.3687 22.0415 9.39591 22.0675 9.42034C22.0935 9.44478 22.1221 9.46479 22.1312 9.46479C22.1403 9.46479 22.1748 9.48335 22.208 9.50605C22.2412 9.52873 22.2993 9.5532 22.3372 9.56039C22.3751 9.5676 22.4204 9.5866 22.438 9.60262C22.4555 9.61862 22.4943 9.64385 22.5242 9.65867C22.554 9.67348 22.5892 9.69505 22.6025 9.70658C22.6157 9.71812 22.6572 9.7384 22.6947 9.75164C22.7322 9.76489 22.7759 9.78959 22.7916 9.80653C22.8278 9.84536 23.025 9.94547 23.0653 9.94547C23.0819 9.94547 23.1152 9.962 23.1393 9.9822C23.2012 10.034 23.4001 10.1315 23.444 10.1315C23.4642 10.1315 23.494 10.1465 23.5102 10.1647C23.5463 10.2051 23.7735 10.3176 23.8192 10.3176C23.8374 10.3176 23.8681 10.3345 23.8875 10.3551C23.9069 10.3758 23.9447 10.4014 23.9716 10.4121C23.9985 10.4228 24.0842 10.4747 24.1622 10.5274C24.2573 10.5917 24.3245 10.6259 24.3666 10.6316C24.4093 10.6373 24.4731 10.6703 24.5661 10.7347C24.6414 10.7867 24.7151 10.8293 24.7299 10.8293C24.7448 10.8293 24.7839 10.8537 24.817 10.8836C24.85 10.9134 24.8834 10.9378 24.8912 10.9378C24.899 10.9378 24.9433 10.9623 24.9896 10.9921C25.0359 11.022 25.0839 11.0464 25.0961 11.0464C25.1084 11.0464 25.1401 11.0628 25.1664 11.0828C25.1928 11.1028 25.2423 11.1281 25.2764 11.139C25.3106 11.1499 25.3498 11.1688 25.3638 11.1809C25.3777 11.193 25.4143 11.2099 25.4452 11.2184C25.476 11.2269 25.5204 11.252 25.5439 11.274C25.5933 11.3205 25.7889 11.4185 25.8322 11.4185C25.8483 11.4185 25.8865 11.4404 25.9169 11.4671C25.99 11.5313 26.0844 11.5728 26.1582 11.5732C26.2027 11.5735 26.247 11.5556 26.3304 11.5036C26.3922 11.465 26.4553 11.4197 26.4706 11.4028C26.4859 11.3858 26.5166 11.372 26.5387 11.3719C26.5801 11.3719 26.5919 11.3653 26.7874 11.233C26.8509 11.1901 26.9113 11.1549 26.9216 11.1549C26.932 11.1549 26.9696 11.1305 27.0053 11.1007C27.0411 11.0708 27.0863 11.0464 27.1059 11.0464C27.1588 11.0464 27.3476 10.9477 27.3998 10.8928C27.4248 10.8664 27.4523 10.8448 27.4608 10.8448C27.4693 10.8448 27.5046 10.8313 27.5393 10.8149C27.5739 10.7985 27.6309 10.7776 27.6657 10.7685C27.7006 10.7594 27.7425 10.737 27.7588 10.7187C27.7913 10.6823 27.9481 10.6067 28.0273 10.5893C28.0549 10.5832 28.1004 10.5582 28.1283 10.5337C28.1811 10.4873 28.2829 10.4379 28.3987 10.4024C28.4359 10.391 28.476 10.3678 28.4879 10.3508C28.4998 10.3339 28.5339 10.3119 28.5638 10.3021C28.6166 10.2847 28.7801 10.1843 28.8428 10.1309C28.8598 10.1164 28.9025 10.1009 28.9375 10.0965C28.979 10.0913 29.0402 10.0622 29.1128 10.0131C29.2518 9.91915 29.2824 9.90231 29.332 9.89236C29.3537 9.88799 29.3956 9.86648 29.425 9.84455C29.5366 9.76146 29.5892 9.72787 29.6568 9.69666C29.6952 9.67894 29.7475 9.64478 29.7731 9.62073C29.7992 9.59623 29.8466 9.57224 29.8809 9.56613C29.959 9.55225 30.0548 9.50364 30.0731 9.46862C30.081 9.45371 30.0819 9.42729 30.0754 9.40991C30.0592 9.36721 29.9334 9.26594 29.8705 9.24499C29.8426 9.23567 29.7987 9.20895 29.7731 9.18562C29.6978 9.11693 29.555 9.03329 29.4932 9.02169C29.4617 9.01578 29.4245 8.99759 29.4107 8.9813C29.3874 8.9539 29.1468 8.82905 29.1172 8.82905C29.1101 8.82905 29.0807 8.80802 29.0519 8.78231C29.0231 8.7566 28.9736 8.72858 28.9419 8.72006C28.8478 8.6947 28.7193 8.63052 28.6809 8.58968C28.6612 8.56872 28.6233 8.5469 28.5966 8.54121C28.5075 8.52222 28.3626 8.45456 28.3156 8.41005C28.29 8.38583 28.2485 8.36094 28.2233 8.35472C28.1685 8.34122 27.9402 8.22861 27.9282 8.20922C27.9235 8.20171 27.8937 8.18717 27.8618 8.17692C27.7931 8.15477 27.6378 8.06394 27.5686 8.00534C27.5415 7.98244 27.4994 7.95931 27.475 7.95396C27.4507 7.94861 27.4034 7.91989 27.3699 7.89015C27.2815 7.81143 27.1534 7.74364 27.0933 7.74364C27.06 7.74364 27.0305 7.73184 27.0116 7.71101C26.9954 7.69307 26.9507 7.66037 26.9123 7.63832C26.8739 7.61629 26.8259 7.5856 26.8055 7.57016C26.7852 7.5547 26.7562 7.54206 26.7411 7.54206C26.726 7.54206 26.6844 7.51764 26.6487 7.48779C26.613 7.45794 26.5737 7.43352 26.5615 7.43352C26.5185 7.43352 26.3458 7.3519 26.2957 7.30788C26.2678 7.28342 26.2259 7.25888 26.2026 7.25336C26.117 7.23303 25.9728 7.16507 25.9235 7.12181C25.8957 7.09735 25.8538 7.0732 25.8305 7.06813C25.75 7.05062 25.6019 6.97993 25.5555 6.93687C25.53 6.91308 25.4821 6.8864 25.4493 6.87753C25.4164 6.86867 25.3327 6.82354 25.2632 6.77725C25.1937 6.73095 25.1101 6.68829 25.0774 6.68246C25.0141 6.67114 24.8834 6.59911 24.8186 6.53983C24.797 6.5201 24.7551 6.49587 24.7255 6.48597C24.6959 6.47608 24.6508 6.44905 24.6252 6.42589C24.5605 6.36732 24.4023 6.27607 24.3441 6.26373C24.3174 6.25807 24.2725 6.23287 24.2444 6.20774C24.2162 6.1826 24.1873 6.16204 24.1802 6.16204C24.1497 6.16204 23.9096 6.03674 23.8853 6.00813C23.8707 5.9909 23.8393 5.97251 23.8155 5.96724C23.7353 5.94943 23.5756 5.8754 23.5391 5.83904C23.5191 5.81915 23.4727 5.79362 23.436 5.78229C23.3253 5.74813 23.2171 5.69504 23.164 5.64881C23.1364 5.6248 23.0875 5.59803 23.0554 5.58936C23.0233 5.58068 22.9831 5.56394 22.9661 5.55215C22.949 5.54037 22.9097 5.52249 22.8788 5.51243C22.8478 5.50236 22.8101 5.48041 22.7949 5.46363C22.7797 5.44687 22.741 5.42606 22.7089 5.41741C22.6521 5.40212 22.5505 5.34205 22.4234 5.24869C22.3893 5.22363 22.3424 5.1984 22.3193 5.19262C22.2961 5.18683 22.2613 5.16646 22.2417 5.14734C22.1751 5.08201 22.0217 4.99531 21.9588 4.98744C21.9243 4.98313 21.8822 4.9675 21.8652 4.95268C21.8113 4.90588 21.6501 4.8062 21.5962 4.78627C21.5676 4.77573 21.5203 4.74603 21.491 4.72029C21.4617 4.69455 21.4257 4.67345 21.4111 4.67344C21.3798 4.67337 21.1627 4.58679 21.1339 4.56286C21.0898 4.5263 21.0093 4.52187 20.9248 4.55137Z" fill="#281E1E"/>
</g>
<defs>
<clipPath id="clip0_43_1509">
<rect width="42" height="42" fill="white"/>
</clipPath>
</defs>
</svg>
