<svg width="42" height="42" viewBox="0 0 42 42" fill="none" xmlns="http://www.w3.org/2000/svg"><g clip-path="url(#prefix__clip0_43_1509)"><rect width="42" height="42" rx="11" fill="#FF8912"/><path fill-rule="evenodd" clip-rule="evenodd" d="M20.925 4.551c-.121.043-.277.123-.336.172a.18.18 0 01-.088.044c-.049 0-.218.084-.284.142-.028.024-.068.044-.09.044a.717.717 0 00-.278.139.267.267 0 01-.085.054.931.931 0 00-.287.132.556.556 0 01-.116.076c-.09.043-.168.092-.23.144a.272.272 0 01-.11.051c-.034.006-.07.02-.079.032a.81.81 0 01-.271.155.794.794 0 00-.21.108 1.541 1.541 0 01-.178.107.342.342 0 00-.085.056c-.03.025-.07.046-.09.046-.044 0-.229.093-.29.146-.026.022-.062.04-.082.04a.736.736 0 00-.274.14.265.265 0 01-.086.054c-.115.032-.248.091-.28.126a1.301 1.301 0 01-.306.161.192.192 0 00-.057.047c-.026.027-.06.046-.083.046-.045 0-.178.074-.267.149-.035.029-.08.053-.098.053-.037 0-.052.008-.212.115a.85.85 0 01-.17.09.26.26 0 00-.085.042c-.017.014-.097.06-.178.1a1.15 1.15 0 00-.187.111.22.22 0 01-.093.048.858.858 0 00-.285.143.174.174 0 01-.085.042.71.71 0 00-.286.144.213.213 0 01-.101.056.242.242 0 00-.072.023.362.362 0 01-.075.031.469.469 0 00-.128.08.272.272 0 01-.095.06c-.028 0-.172.092-.25.158-.027.024-.066.044-.085.044-.04 0-.064.013-.21.112a.413.413 0 01-.153.074c-.047 0-.059.006-.217.111-.06.04-.14.088-.177.107a.713.713 0 00-.111.07.158.158 0 01-.081.038c-.037 0-.185.076-.285.148a.2.2 0 01-.08.038.726.726 0 00-.266.132.265.265 0 01-.104.06.756.756 0 00-.283.142.254.254 0 01-.076.053c-.032 0-.224.099-.265.136a.267.267 0 01-.103.051.758.758 0 00-.263.157.18.18 0 01-.092.044.531.531 0 00-.174.091.973.973 0 01-.193.108.262.262 0 00-.085.04 1.667 1.667 0 01-.18.103c-.086.044-.183.1-.217.125a.227.227 0 01-.096.045.77.77 0 00-.254.132.204.204 0 01-.083.04.843.843 0 00-.293.148c-.032.029-.068.052-.08.052a.855.855 0 00-.293.135.282.282 0 01-.088.059.84.84 0 00-.232.143.296.296 0 01-.11.06.785.785 0 00-.185.1.98.98 0 01-.19.104.414.414 0 00-.108.053c-.028.02-.117.07-.198.11-.08.04-.161.088-.179.104a.203.203 0 01-.086.041.88.88 0 00-.265.138.255.255 0 01-.097.045.694.694 0 00-.265.133.672.672 0 01-.185.091.535.535 0 00-.194.1.31.31 0 01-.094.065.867.867 0 00-.227.138.274.274 0 01-.127.056.51.51 0 00-.25.134.336.336 0 01-.118.064.967.967 0 00-.275.16c-.094.072-.09.012-.089 1.1l.001.997.042.092c.04.089.045.094.166.152.069.033.14.06.16.06.018 0 .053.019.077.041a.951.951 0 00.289.146c.014 0 .057.024.096.054.04.03.08.054.09.054.01 0 .043.017.072.037a.45.45 0 00.093.048.295.295 0 01.081.048c.023.019.069.043.101.053.062.02.178.088.268.156.03.023.08.05.11.06.03.01.072.034.09.055a.28.28 0 00.084.056c.027.011.069.036.093.055.023.02.07.043.102.052.032.009.07.029.086.045a.16.16 0 00.068.04c.023.006.083.031.134.056.051.025.1.045.11.045.01 0 .034.018.054.04a.815.815 0 00.292.146c.018 0 .048.015.066.034a.873.873 0 00.286.146c.03.006.068.024.083.04s.093.063.173.104c.08.04.174.092.208.114a.435.435 0 00.108.052c.045.01.198.105.264.162a.298.298 0 00.087.045c.03.01.071.034.09.055a.28.28 0 00.084.056c.027.011.073.036.103.056.03.02.072.036.095.036.022 0 .067.02.1.046a.243.243 0 00.076.047c.01 0 .045.02.08.044a.39.39 0 00.107.055.227.227 0 01.085.047.94.94 0 00.29.148c.019 0 .053.017.077.037.065.055.212.13.276.143a.258.258 0 01.1.047c.06.05.2.123.263.135a.304.304 0 01.107.057.225.225 0 00.076.047c.01 0 .09.047.179.106.088.059.183.112.213.118a.38.38 0 01.114.056.294.294 0 00.077.045c.008 0 .034.014.059.032a.45.45 0 00.095.049.4.4 0 01.11.069c.031.028.067.052.078.052.012 0 .049.02.082.043a.53.53 0 00.107.06.58.58 0 01.107.057.25.25 0 00.085.042c.014 0 .053.018.087.039a.263.263 0 00.088.038c.015 0 .05.02.078.044.063.055.22.136.288.15.028.006.07.026.093.045.056.047.213.125.294.147.036.01.066.025.066.033s.035.032.079.054c.043.022.128.073.188.113.16.105.17.111.218.111.039 0 .246.121.267.156a.183.183 0 00.066.031c.032.01.079.038.104.062a.463.463 0 00.101.068c.03.014.103.053.163.086.06.034.133.072.163.085.03.014.087.042.126.063a.34.34 0 00.097.039c.013 0 .047.02.075.044.065.056.22.136.291.15.03.006.076.03.101.052.05.043.205.118.274.133a.242.242 0 01.085.045c.024.02.114.073.199.117.085.044.166.09.18.104.014.013.052.03.084.039.057.016.26.137.277.166.006.009.036.024.068.035.032.01.085.042.119.07a.264.264 0 00.078.053c.009 0 .041.017.072.037.03.021.082.043.116.05a.277.277 0 01.1.04 1.3 1.3 0 00.27.152c.012 0 .046.02.074.044a.876.876 0 00.295.15c.03.006.069.024.084.042a.91.91 0 00.281.143c.029.006.074.03.101.054.027.023.072.057.1.077a.27.27 0 01.074.08c.02.04.024.604.028 4.848.003 2.642.01 4.83.017 4.863.01.05.007.064-.023.096-.046.05-.123.05-.234.002a26.83 26.83 0 00-.184-.08.632.632 0 01-.147-.086.29.29 0 00-.102-.058.982.982 0 01-.186-.1.776.776 0 00-.193-.098.729.729 0 01-.268-.15.284.284 0 00-.093-.053.307.307 0 01-.1-.061.632.632 0 00-.108-.077.503.503 0 01-.074-.046.223.223 0 00-.083-.03.2.2 0 01-.09-.042 1.358 1.358 0 00-.287-.153.215.215 0 01-.064-.046.32.32 0 00-.111-.062.797.797 0 01-.269-.13.288.288 0 00-.103-.056.703.703 0 01-.263-.13.194.194 0 00-.085-.05.687.687 0 01-.132-.055.47.47 0 00-.103-.044c-.01 0-.03-.014-.046-.03a.227.227 0 00-.083-.05 1.245 1.245 0 01-.292-.17.27.27 0 00-.094-.052.254.254 0 01-.094-.054c-.08-.074-.228-.156-.28-.156-.033 0-.075-.02-.126-.058a.853.853 0 00-.237-.142.228.228 0 01-.086-.055.222.222 0 00-.094-.055.792.792 0 01-.275-.133.18.18 0 00-.078-.046.881.881 0 01-.281-.133.268.268 0 00-.093-.054.863.863 0 01-.268-.124.372.372 0 00-.108-.06 1.18 1.18 0 01-.195-.11.562.562 0 00-.163-.085c-.05 0-.183-.068-.269-.14a.382.382 0 00-.116-.069.159.159 0 01-.072-.04 1.098 1.098 0 00-.277-.17c-.036 0-.104-.036-.14-.075-.015-.018-.035-.033-.042-.033a1.27 1.27 0 01-.295-.153.147.147 0 00-.07-.041c-.078-.017-.26-.103-.28-.132a.217.217 0 00-.093-.052.82.82 0 01-.273-.131.23.23 0 00-.085-.05.994.994 0 01-.126-.055.363.363 0 00-.088-.037.181.181 0 01-.066-.04.326.326 0 00-.102-.055c-.06-.017-.122-.052-.254-.148a.566.566 0 00-.132-.076.38.38 0 01-.11-.067 1.982 1.982 0 00-.105-.081.494.494 0 01-.09-.109l-.053-.083.007-2.644.008-2.643-.094-.093c-.107-.105-.206-.17-.286-.186a.233.233 0 01-.093-.047 1.08 1.08 0 00-.178-.102 1.169 1.169 0 01-.189-.109.276.276 0 00-.112-.052c-.035-.006-.067-.017-.071-.024a.184.184 0 00-.066-.032.4.4 0 01-.117-.07c-.032-.03-.072-.053-.09-.053a.848.848 0 01-.284-.138.227.227 0 00-.093-.05.338.338 0 01-.1-.046.136.136 0 00-.063-.03.236.236 0 01-.087-.044.446.446 0 00-.119-.06.389.389 0 01-.11-.057.256.256 0 00-.064-.04.303.303 0 01-.071-.047.61.61 0 00-.119-.071.529.529 0 01-.116-.074c-.096-.083-.192-.134-.25-.134a.158.158 0 01-.106-.042 1.082 1.082 0 00-.23-.146.647.647 0 01-.122-.078c-.028-.024-.065-.044-.082-.044a.844.844 0 01-.278-.132.304.304 0 00-.108-.054.413.413 0 01-.125-.063.596.596 0 00-.098-.063c-.053-.024-.083.002-.103.089-.009.035-.015 2.05-.015 4.832v4.771l.04.086c.037.077.051.09.156.147a.561.561 0 00.153.063c.02 0 .057.017.082.039a.95.95 0 00.292.147c.019 0 .054.016.078.037.024.02.074.052.112.07.037.02.122.072.187.117a.544.544 0 00.188.094c.064.01.153.06.25.14a.37.37 0 00.101.054c.032.01.085.043.117.072.032.028.068.052.08.052.012 0 .042.016.066.036a.36.36 0 00.1.055c.03.01.078.035.107.056a.22.22 0 00.068.039c.01 0 .059.02.11.046.051.026.1.047.11.047.01 0 .03.014.045.03.04.044.251.156.295.156.02 0 .056.016.08.036.06.051.256.15.295.15.018 0 .053.016.077.037.024.02.111.071.193.113.082.043.168.092.19.11a.264.264 0 00.092.043c.049.01.18.088.262.156a.373.373 0 00.101.053c.032.01.085.043.117.072a.227.227 0 00.078.052c.011 0 .044.017.073.038a.2.2 0 00.094.04c.022 0 .067.017.098.038.032.021.084.052.116.069.032.016.067.04.078.053.011.014.044.029.072.034a.198.198 0 01.088.045.964.964 0 00.288.148c.015 0 .056.02.09.044.088.065.241.142.28.142.019 0 .054.016.078.036.065.055.257.15.302.15a.12.12 0 01.073.037.37.37 0 00.1.065c.036.016.123.07.193.119.075.052.145.089.169.089.053 0 .12.033.23.117a.601.601 0 00.148.085.26.26 0 01.1.061c.024.026.052.047.062.047.01 0 .055.025.1.054.047.03.095.055.107.055.013 0 .044.016.07.036.027.02.066.042.088.048a.646.646 0 01.1.047c.034.02.081.04.104.045a.236.236 0 01.086.05.822.822 0 00.288.146c.02 0 .05.015.066.033.036.04.263.153.307.153.018 0 .05.017.071.037.022.02.106.07.187.112.081.04.168.09.194.108a.31.31 0 00.093.044c.025.006.114.055.196.11.082.056.16.1.174.1.013 0 .047.02.075.045a.798.798 0 00.12.081l.1.056c.018.011.051.02.074.02s.061.017.085.037c.024.02.073.051.109.07.036.018.069.039.074.047a.275.275 0 00.087.04c.043.015.082.036.087.048.01.025.248.146.289.146.016 0 .051.018.078.04a.98.98 0 00.294.146c.017 0 .05.017.076.039a.926.926 0 00.278.14.31.31 0 01.106.056c.03.024.062.044.072.044.01 0 .09.049.178.108.106.072.177.109.206.109.048 0 .113.035.234.125a.59.59 0 00.134.075c.031.01.07.033.086.05a.377.377 0 00.09.064.56.56 0 01.087.052.374.374 0 00.092.045.36.36 0 01.1.053.215.215 0 00.07.04c.07.02.295.132.295.145 0 .017.21.123.271.136.026.005.061.023.078.038.045.04.227.133.289.147a.267.267 0 01.096.047c.023.02.104.066.178.102.074.036.155.081.179.101.024.02.062.04.085.046a.93.93 0 01.258.145.61.61 0 00.134.076c.031.01.07.033.085.051a.359.359 0 00.091.063l.117.06c.03.016.069.03.087.03.018 0 .059.02.091.046a.233.233 0 00.079.046c.01 0 .04.018.067.04a.33.33 0 00.106.056.29.29 0 01.105.06c.059.056.145.092.22.092.065 0 .07-.003.244-.12a.612.612 0 01.148-.081.238.238 0 00.087-.042 2.2 2.2 0 01.2-.11c.077-.038.166-.093.198-.122.032-.028.07-.052.084-.052a.733.733 0 00.28-.128.856.856 0 01.291-.136c.012 0 .045-.02.073-.043.028-.024.118-.076.2-.116.145-.07.15-.074.182-.153l.034-.081V33.22c-.001-1.685.003-4.87.009-7.08l.01-4.016.074-.072a.355.355 0 01.119-.082.252.252 0 00.093-.054.253.253 0 01.104-.054.711.711 0 00.254-.151.155.155 0 01.113-.044c.054 0 .08-.014.179-.095.086-.07.132-.096.178-.103a.645.645 0 00.21-.107c.082-.054.157-.098.166-.098a.35.35 0 00.093-.062.313.313 0 01.098-.062.805.805 0 00.276-.131c.033-.039.169-.105.273-.133a.225.225 0 00.089-.047.817.817 0 01.262-.13.342.342 0 00.114-.064.291.291 0 01.08-.053c.027 0 .228-.105.274-.144a.26.26 0 01.101-.05.532.532 0 00.227-.13.34.34 0 01.12-.065.81.81 0 00.186-.099c.07-.047.156-.1.192-.119a.704.704 0 00.11-.07c.025-.02.058-.037.075-.037a.76.76 0 00.286-.146c.024-.036.2-.12.298-.14a.134.134 0 00.071-.04c.025-.037.186-.117.262-.131a.295.295 0 00.113-.063.28.28 0 01.073-.053c.03 0 .224-.1.262-.136a.268.268 0 01.104-.052.74.74 0 00.25-.14.322.322 0 01.123-.05c.05-.009.094-.033.178-.102.08-.066.129-.093.177-.101a.595.595 0 00.19-.095c.068-.046.149-.094.18-.107a.509.509 0 00.116-.078c.033-.03.072-.054.086-.054a.656.656 0 00.268-.123.63.63 0 01.268-.133.314.314 0 00.121-.069c.026-.026.056-.047.067-.047.01 0 .042-.013.072-.03a.464.464 0 01.11-.038.177.177 0 00.085-.043.912.912 0 01.177-.103c.08-.04.17-.09.198-.115a.18.18 0 01.092-.044c.042 0 .154-.064.262-.15a.23.23 0 01.1-.051c.041 0 .054-.008.264-.153.203-.14.272-.16.344-.098.025.022.027.273.027 4.874 0 4.188-.003 4.86-.023 4.905-.035.085-.158.207-.227.225a.808.808 0 00-.298.154c-.024.026-.056.048-.07.048-.03 0-.165.08-.254.152a.318.318 0 01-.113.056.426.426 0 00-.136.072c-.097.073-.194.123-.242.123-.02 0-.096.04-.17.088a2.2 2.2 0 01-.204.122.339.339 0 00-.09.058.156.156 0 01-.078.036.994.994 0 00-.29.144.21.21 0 01-.083.04.999.999 0 00-.296.155.227.227 0 01-.085.048.772.772 0 00-.264.13.33.33 0 01-.104.062.178.178 0 00-.067.033.255.255 0 01-.067.044.533.533 0 00-.1.07.225.225 0 01-.116.053.56.56 0 00-.254.137.261.261 0 01-.103.052.79.79 0 00-.188.101.919.919 0 01-.183.103.384.384 0 00-.104.05 2.01 2.01 0 01-.195.109c-.08.04-.161.086-.178.101a.215.215 0 01-.084.04 1.031 1.031 0 00-.296.153.583.583 0 01-.089.064.162.162 0 00-.06.053c-.005.013-.008.936-.007 2.05.002 1.424-.002 2.045-.014 2.09-.023.084-.002.125.066.124a.203.203 0 00.084-.02c.216-.121.268-.148.312-.157a.277.277 0 00.1-.054.842.842 0 01.276-.134.286.286 0 00.106-.06.19.19 0 01.076-.047c.045-.011.189-.1.25-.156a.247.247 0 01.109-.045.661.661 0 00.276-.15.165.165 0 01.096-.045.167.167 0 00.088-.036 1.55 1.55 0 01.274-.173.29.29 0 00.092-.063.263.263 0 01.104-.06c.115-.034.239-.095.272-.133a.767.767 0 01.27-.131.275.275 0 00.1-.054c.05-.044.2-.115.277-.132a.274.274 0 00.093-.052c.028-.024.11-.07.183-.103.072-.033.154-.08.182-.104a.179.179 0 01.092-.044c.041 0 .173-.079.265-.158a.168.168 0 01.096-.044.168.168 0 00.088-.035c.055-.044.196-.136.278-.18.033-.019.085-.051.114-.072a.197.197 0 01.085-.038c.049 0 .239-.101.274-.145a.217.217 0 01.088-.058.525.525 0 00.09-.038.299.299 0 01.086-.03.196.196 0 00.093-.049.736.736 0 01.28-.136.197.197 0 00.092-.05.695.695 0 01.267-.131.309.309 0 00.112-.06.27.27 0 01.085-.055c.044-.013.191-.105.248-.156a.21.21 0 01.108-.042.633.633 0 00.278-.157.154.154 0 01.077-.034.755.755 0 00.188-.1c.073-.049.156-.1.186-.112a.417.417 0 00.105-.072c.027-.027.06-.048.072-.048a.835.835 0 00.303-.145.282.282 0 01.08-.057.385.385 0 00.08-.03.714.714 0 01.114-.039.218.218 0 00.092-.056.19.19 0 01.056-.046.617.617 0 00.094-.037.845.845 0 01.13-.047.218.218 0 00.092-.056c.024-.025.05-.046.06-.046.029 0 .25-.114.288-.149a.27.27 0 01.104-.05.297.297 0 00.214-.19c.024-.07.026-.669.026-8.159 0-4.927.005-8.107.014-8.147.018-.082 0-.124-.072-.174a.408.408 0 01-.086-.08.172.172 0 00-.096-.061.843.843 0 01-.28-.137.214.214 0 00-.09-.05.926.926 0 01-.185-.1.688.688 0 00-.193-.099.776.776 0 01-.264-.143.332.332 0 00-.09-.052.38.38 0 01-.1-.06 1.034 1.034 0 00-.277-.165.276.276 0 01-.1-.045.244.244 0 00-.17-.05.517.517 0 00-.116.058.89.89 0 01-.163.078.248.248 0 00-.091.044c-.01.013-.09.059-.176.102a1.563 1.563 0 00-.201.117.157.157 0 01-.077.037c-.04 0-.235.099-.296.15a.155.155 0 01-.076.036.82.82 0 00-.281.142c-.018.026-.062.045-.255.11a.388.388 0 00-.113.077.268.268 0 01-.077.059c-.03 0-.25.112-.282.143a.22.22 0 01-.091.045.91.91 0 00-.277.161.23.23 0 01-.097.045.26.26 0 00-.1.046c-.085.069-.218.15-.248.15a.2.2 0 00-.084.036 2.62 2.62 0 01-.208.118 1.644 1.644 0 00-.199.118.158.158 0 01-.08.037c-.041 0-.223.094-.292.15a.158.158 0 01-.078.036.754.754 0 00-.278.14c-.02.028-.064.047-.258.113a.313.313 0 00-.1.067.265.265 0 01-.087.06c-.052.016-.252.14-.287.179a.106.106 0 01-.068.03.175.175 0 00-.08.028l-.132.088a.544.544 0 01-.156.073.78.78 0 00-.216.113 1.166 1.166 0 01-.168.102.312.312 0 00-.085.054.248.248 0 01-.102.054.822.822 0 00-.279.139.176.176 0 01-.084.042.972.972 0 00-.29.146.206.206 0 01-.085.04.787.787 0 00-.286.149.734.734 0 01-.272.128.177.177 0 00-.077.046.274.274 0 01-.083.056c-.07.027-.226.122-.286.172-.028.024-.066.044-.085.044a.187.187 0 00-.081.03c-.18.12-.266.171-.288.171a.235.235 0 00-.084.04c-.033.022-.091.056-.13.075-.137.067-.227.12-.258.15a.204.204 0 01-.086.04.88.88 0 00-.278.138.236.236 0 01-.093.046.852.852 0 00-.294.153c-.02.022-.046.04-.057.04-.01 0-.075.022-.144.048-.088.034-.135.062-.158.093-.017.025-.04.046-.05.046-.01 0-.06.02-.112.046a.624.624 0 01-.11.046c-.009 0-.035.018-.058.04-.051.047-.092.07-.127.07-.029 0-.21.108-.265.157a.254.254 0 01-.097.045.481.481 0 00-.145.076.964.964 0 01-.151.094 2.337 2.337 0 00-.124.061c-.105.057-.24.129-.302.159a.527.527 0 00-.101.066.233.233 0 01-.093.047.879.879 0 00-.286.145.101.101 0 01-.062.033.957.957 0 00-.317.162c-.02.022-.051.04-.07.04a.191.191 0 00-.072.02c-.02.01-.07.032-.11.047a.234.234 0 00-.097.064.175.175 0 01-.08.055c-.06.02-.188.097-.264.16a.313.313 0 01-.11.054.472.472 0 00-.146.08c-.138.11-.199.125-.355.092a.345.345 0 01-.142-.07.26.26 0 00-.082-.053.35.35 0 01-.09-.037.819.819 0 00-.106-.048.37.37 0 01-.089-.05.37.37 0 00-.097-.051 1.079 1.079 0 01-.258-.153.57.57 0 00-.12-.068.33.33 0 01-.094-.057.612.612 0 00-.27-.145.207.207 0 01-.108-.046.98.98 0 00-.253-.159.191.191 0 01-.076-.048.288.288 0 00-.106-.06.839.839 0 01-.277-.134c-.028-.025-.061-.045-.074-.045a.929.929 0 01-.296-.14c-.03-.025-.062-.046-.073-.046a.346.346 0 01-.09-.037.819.819 0 00-.107-.048.348.348 0 01-.084-.046.446.446 0 00-.109-.054.336.336 0 01-.093-.046.928.928 0 00-.272-.155.253.253 0 01-.098-.045 1.38 1.38 0 00-.187-.11 1.363 1.363 0 01-.194-.115.806.806 0 00-.258-.149.246.246 0 01-.1-.055c-.02-.022-.043-.04-.052-.04-.03 0-.251-.115-.3-.157-.029-.024-.062-.044-.075-.044a.929.929 0 01-.296-.14c-.03-.025-.064-.046-.077-.046a.94.94 0 01-.293-.137.267.267 0 00-.105-.055c-.03-.005-.063-.02-.073-.032a.206.206 0 00-.075-.04.437.437 0 01-.103-.054.437.437 0 00-.107-.054.813.813 0 01-.242-.143.46.46 0 00-.117-.068.38.38 0 01-.108-.066.706.706 0 00-.258-.151.222.222 0 01-.09-.045 1.101 1.101 0 00-.18-.101 1.166 1.166 0 01-.188-.11.276.276 0 00-.112-.052c-.035-.006-.067-.017-.072-.024a.185.185 0 00-.066-.032.4.4 0 01-.116-.07c-.032-.03-.072-.053-.09-.053a.853.853 0 01-.29-.141c-.028-.025-.061-.045-.074-.045-.034 0-.277-.117-.3-.145a.145.145 0 00-.069-.034.815.815 0 01-.25-.143.839.839 0 00-.138-.08.263.263 0 01-.078-.046c-.006-.009-.04-.024-.076-.034a.407.407 0 01-.107-.047.5.5 0 00-.102-.051c-.083-.03-.169-.087-.19-.128-.015-.027-.015-.045 0-.082.028-.066.159-.202.194-.202a.72.72 0 00.282-.128.854.854 0 01.293-.136c.012 0 .045-.02.074-.046a.796.796 0 01.275-.133.266.266 0 00.1-.054.927.927 0 01.177-.103c.082-.04.168-.088.192-.108a.155.155 0 01.078-.036c.037 0 .164-.075.264-.154a.216.216 0 01.093-.048c.038 0 .053-.009.216-.118a.698.698 0 01.171-.09.148.148 0 00.072-.032c.01-.013.09-.058.177-.102.086-.044.178-.099.204-.123a.318.318 0 01.116-.062.392.392 0 00.085-.03.213.213 0 01.06-.023.34.34 0 00.108-.068.782.782 0 01.292-.142c.03-.01.069-.032.085-.05a.799.799 0 01.268-.129.276.276 0 00.1-.054.316.316 0 01.086-.054c.047-.015.197-.11.25-.156.02-.02.07-.04.108-.046a.662.662 0 00.276-.15.165.165 0 01.095-.044.166.166 0 00.089-.036c.06-.05.22-.153.274-.177a.477.477 0 00.098-.066.276.276 0 01.095-.056.792.792 0 00.282-.136.765.765 0 01.281-.133c.031-.01.07-.032.086-.05a.722.722 0 01.261-.124.286.286 0 00.109-.057.908.908 0 01.178-.103 1 1 0 00.183-.104c.028-.024.065-.043.083-.043.04 0 .178-.078.262-.149.04-.033.08-.053.108-.053a.166.166 0 00.088-.036c.053-.045.186-.13.296-.188.044-.025.081-.05.081-.057 0-.007.03-.02.066-.031.107-.03.26-.107.296-.148a.744.744 0 01.281-.138.189.189 0 00.088-.049.741.741 0 01.28-.134.195.195 0 00.091-.05.39.39 0 01.108-.072c.176-.078.33-.136.36-.136a.65.65 0 01.167.079c.072.043.16.09.194.106.034.015.071.039.083.053a.248.248 0 00.095.047c.04.013.131.062.202.11.07.05.15.096.176.105.026.009.07.036.095.06.026.025.055.045.064.045.01 0 .044.018.077.041a.41.41 0 00.13.054.25.25 0 01.1.043.454.454 0 00.086.056c.03.014.065.036.078.048a.375.375 0 00.093.045.295.295 0 01.097.055.867.867 0 00.273.138c.017 0 .05.017.074.037.062.052.261.15.305.15.02 0 .05.014.066.033.036.04.263.153.31.153.017 0 .048.017.067.037.02.02.058.046.085.057.026.01.112.063.19.115a.593.593 0 00.205.105.552.552 0 01.2.103.733.733 0 00.163.094c.015 0 .054.025.087.055.033.03.066.054.074.054.008 0 .052.024.099.054.046.03.094.054.106.054a.18.18 0 01.07.037.44.44 0 00.11.056c.035.01.074.03.088.042.014.012.05.029.081.037.031.009.075.034.099.056.05.046.245.145.288.145.016 0 .055.021.085.048a.404.404 0 00.241.106c.045 0 .089-.017.172-.07a.995.995 0 00.14-.1.106.106 0 01.069-.031c.041 0 .053-.007.248-.139a.698.698 0 01.135-.078c.01 0 .048-.024.083-.054.036-.03.081-.055.1-.055.054 0 .243-.098.295-.153.025-.027.052-.048.06-.048a.365.365 0 00.08-.03.874.874 0 01.126-.046.222.222 0 00.093-.05.793.793 0 01.268-.13.28.28 0 00.101-.055.8.8 0 01.27-.132.202.202 0 00.09-.051.174.174 0 01.076-.049 1.4 1.4 0 00.279-.171.217.217 0 01.095-.034.468.468 0 00.175-.084c.139-.094.17-.11.219-.12a.3.3 0 00.093-.048 1.22 1.22 0 01.232-.148.524.524 0 00.116-.076.246.246 0 01.108-.055c.078-.014.174-.062.192-.097a.082.082 0 00.002-.06.506.506 0 00-.204-.164.332.332 0 01-.098-.06.827.827 0 00-.28-.163.166.166 0 01-.082-.04 1.343 1.343 0 00-.294-.153.238.238 0 01-.065-.047.328.328 0 00-.11-.062.73.73 0 01-.261-.13.192.192 0 00-.084-.049.787.787 0 01-.281-.131.255.255 0 00-.093-.055 1.485 1.485 0 01-.295-.146.182.182 0 00-.066-.032 1.236 1.236 0 01-.293-.172.27.27 0 00-.094-.051.312.312 0 01-.105-.064c-.088-.079-.217-.146-.277-.146a.109.109 0 01-.081-.033.51.51 0 00-.1-.073 1.28 1.28 0 01-.107-.068.137.137 0 00-.064-.028c-.015 0-.057-.024-.092-.054a.256.256 0 00-.088-.054.787.787 0 01-.265-.126.277.277 0 00-.093-.055.88.88 0 01-.28-.131.265.265 0 00-.092-.054.825.825 0 01-.276-.131.3.3 0 00-.106-.06.929.929 0 01-.186-.1.729.729 0 00-.186-.095.71.71 0 01-.258-.142.31.31 0 00-.093-.054.341.341 0 01-.1-.06.957.957 0 00-.282-.162.27.27 0 01-.1-.056.23.23 0 00-.064-.046c-.03 0-.27-.125-.295-.154a.148.148 0 00-.07-.04.88.88 0 01-.276-.129.298.298 0 00-.103-.057.84.84 0 01-.272-.133.33.33 0 00-.109-.06.358.358 0 01-.089-.037.419.419 0 00-.087-.04.23.23 0 01-.084-.048.211.211 0 00-.086-.047 1.112 1.112 0 01-.286-.168.393.393 0 00-.104-.056.204.204 0 01-.077-.046.736.736 0 00-.283-.16.21.21 0 01-.094-.034 1.462 1.462 0 00-.269-.167.412.412 0 01-.105-.066c-.03-.025-.065-.047-.08-.047a1.29 1.29 0 01-.277-.11c-.044-.037-.125-.041-.21-.012z" fill="#281E1E"/></g><defs><clipPath id="prefix__clip0_43_1509"><path fill="#fff" d="M0 0h42v42H0z"/></clipPath></defs></svg>